<?xml version="1.0" encoding="UTF-8"?>
<svg width="164px" height="29px" viewBox="0 0 164 29" version="1.1" xmlns="http://www.w3.org/2000/svg" xmlns:xlink="http://www.w3.org/1999/xlink">
    <!-- Generator: Sketch 52.2 (67145) - http://www.bohemiancoding.com/sketch -->
    <title>Group 2-online</title>
    <desc>Created with Sketch.</desc>
    <g id="Page-1" stroke="none" stroke-width="1" fill="none" fill-rule="evenodd">
        <g id="Group-2">
            <g id="customer-review-3-copy">
                <g id="customer-review">
                    <path d="M25.5116272,20.5997012 C23.2443238,23.0892277 19.6400451,24.6998742 15.574768,25.0496015 C14.6999817,25.6521209 13.7272033,26.1877359 12.7560119,26.6541658 C9.89321897,28.0283662 7.03836057,28.7966259 6.71939084,28.8802564 C6.50793457,28.9376573 6.28854373,28.9669279 6.06796267,28.9669279 C5.17770388,28.9669279 4.35964963,28.5023988 3.93395996,27.7554269 C3.39202886,26.8161048 3.59555056,25.6464188 4.42987066,24.9161729 C5.18167112,24.2596738 5.63790896,23.7270999 5.9136352,23.3230127 C4.33029177,22.5273831 2.99172971,21.4983483 1.99594119,20.3043336 C0.691101125,18.7385435 0,16.9275639 0,15.0686871 C0,12.2944369 1.5123291,9.71595797 4.25808713,7.80766309 C6.58132932,6.19283507 9.56393435,5.22614304 12.7560119,5.04025537 C13.1348877,5.01668674 13.5161438,5.00604287 13.900177,5.00604287 C16.6987,5.00604287 19.3960571,5.60209991 21.6998596,6.72959052 L25.5116272,20.5997012 Z" id="Path" fill="#8AC8B9"></path>
                    <path d="M25.5116272,20.5997012 C23.2443238,23.0892277 19.6400451,24.6998742 15.574768,25.0496015 C14.6999817,25.6521209 13.7272033,26.1877359 12.7560119,26.6541658 L12.7560119,5.04025537 C13.1348877,5.01668674 13.5161438,5.00604287 13.900177,5.00604287 C16.6987,5.00604287 19.3960571,5.60209991 21.6998596,6.72959052 L25.5116272,20.5997012 Z" id="Path" fill="#65B3A1"></path>
                    <path d="M49.5997925,18.3842544 C48.3282776,19.9063287 46.5914002,21.2071623 44.529602,22.1898201 C44.8576965,22.7554661 45.4746094,23.546154 46.631073,24.5531408 C47.5439453,25.3514314 47.7641297,26.6248951 47.171814,27.6531695 C46.7116089,28.461724 45.82135,28.9669279 44.8517457,28.9669279 C44.6121215,28.9669279 44.3740844,28.9357566 44.1455688,28.8734139 C43.7349549,28.7662148 38.8520203,27.4585387 34.7930908,25.1225881 C34.2471924,24.8089739 33.7167664,24.4771131 33.2137146,24.1266254 C30.5926615,23.9117205 27.1558024,22.6733562 22.9031372,20.4115326 C19.8427734,16.9423894 18.3125916,14.1747282 18.3125916,12.1085492 C18.3125916,8.78918045 20.1315918,5.69751468 23.4335633,3.40109849 C26.5026551,1.26890201 30.5238953,0.0672844765 34.7930908,0.00380138423 C34.914093,0.00114042013 35.0346985,0 35.1557007,0 C39.5601807,0 43.7238465,1.20846007 46.8782348,3.40109849 C50.1809998,5.69637424 52,8.78918045 52,12.1085492 C52,14.3354001 51.1696472,16.5059904 49.5997925,18.3842544 Z" id="Path" fill="#47A992"></path>
                    <path d="M52,12.1085492 C52,14.3354001 51.1696472,16.5059904 49.5997925,18.3842544 C48.3282776,19.9063287 46.5914002,21.2071623 44.529602,22.1898201 C44.8576965,22.7554661 45.4746094,23.546154 46.631073,24.5531408 C47.5439453,25.3514314 47.7641297,26.6248951 47.171814,27.6531695 C46.7116089,28.461724 45.82135,28.9669279 44.8517457,28.9669279 C44.6121215,28.9669279 44.3740844,28.9357566 44.1455688,28.8734139 C43.7349549,28.7662148 38.8520203,27.4585387 34.7930908,25.1225881 L34.7930908,0.00380138423 C34.914093,0.00114042013 35.0346985,0 35.1557007,0 C39.5601807,0 43.7238465,1.20846007 46.8782348,3.40109849 C50.1809998,5.69637424 52,8.78918045 52,12.1085492 Z" id="Path" fill="#349881"></path>
                    <path d="M41.9524536,9.87561611 C41.9524536,10.6818897 41.2696838,11.3364881 40.4282227,11.3364881 L29.157959,11.3364881 C28.3164978,11.3364881 27.6337281,10.6818897 27.6337281,9.87561611 C27.6337281,9.06858221 28.3164978,8.41512424 29.157959,8.41512424 L40.4282227,8.41512424 C41.2696838,8.41512424 41.9524536,9.06858221 41.9524536,9.87561611 Z" id="Path" fill="#FFFFFF"></path>
                    <path d="M41.9524536,14.7649565 C41.9524536,15.5719904 41.2696838,16.2254483 40.4282227,16.2254483 L29.157959,16.2254483 C28.3164978,16.2254483 27.6337281,15.5719904 27.6337281,14.7649565 C27.6337281,13.9586829 28.3164978,13.3040846 29.157959,13.3040846 L40.4282227,13.3040846 C41.2696838,13.3040846 41.9524536,13.9586829 41.9524536,14.7649565 Z" id="Path" fill="#FFFFFF"></path>
                    <g id="Group" transform="translate(34.734375, 8.369128)" fill="#8AC8B9">
                        <path d="M7.21807856,6.39582894 C7.21807856,7.20286284 6.53530881,7.85632081 5.69384766,7.85632081 L0.0587158203,7.85632081 L0.0587158203,4.93495705 L5.69384766,4.93495705 C6.53530881,4.93495705 7.21807856,5.58955537 7.21807856,6.39582894 Z" id="Path"></path>
                        <path d="M5.69384766,2.96736058 L0.0587158203,2.96736058 L0.0587158203,0.0459967248 L5.69384766,0.0459967248 C6.53530881,0.0459967248 7.21807856,0.699454698 7.21807856,1.50648859 C7.21807856,2.31276216 6.53530881,2.96736058 5.69384766,2.96736058 Z" id="Path"></path>
                    </g>
                </g>
            </g>
            <g id="Group-11" transform="translate(60.000000, 0.000000)" fill="#000000">
                <path d="M0.883,11.2275 L0.883,0.3 L4.903,0.3 C5.65800377,0.3 6.30049735,0.3699993 6.8305,0.51 C7.36050265,0.6500007 7.79299832,0.847498725 8.128,1.1025 C8.46300168,1.35750127 8.70674924,1.66749818 8.85925,2.0325 C9.01175076,2.39750183 9.088,2.80499775 9.088,3.255 C9.088,3.50000123 9.05300035,3.73624886 8.983,3.96375 C8.91299965,4.19125114 8.80300075,4.404999 8.653,4.605 C8.50299925,4.805001 8.31050118,4.98624919 8.0755,5.14875 C7.84049883,5.31125081 7.55800165,5.4524994 7.228,5.5725 C7.9480036,5.74750087 8.48049827,6.03124804 8.8255,6.42375 C9.17050172,6.81625196 9.343,7.31999692 9.343,7.935 C9.343,8.40000233 9.2530009,8.832498 9.073,9.2325 C8.8929991,9.632502 8.62925174,9.98124851 8.28175,10.27875 C7.93424826,10.5762515 7.50550255,10.8087492 6.9955,10.97625 C6.48549745,11.1437508 5.90300328,11.2275 5.248,11.2275 L0.883,11.2275 Z M3.418,6.5925 L3.418,9.315 L5.203,9.315 C5.53800167,9.315 5.81174894,9.27250042 6.02425,9.1875 C6.23675106,9.10249958 6.4029994,8.99250067 6.523,8.8575 C6.6430006,8.72249933 6.72549977,8.57000085 6.7705,8.4 C6.81550022,8.22999915 6.838,8.05750088 6.838,7.8825 C6.838,7.682499 6.81175026,7.5025008 6.75925,7.3425 C6.70674974,7.1824992 6.61675064,7.04750055 6.48925,6.9375 C6.36174936,6.82749945 6.19300105,6.7425003 5.983,6.6825 C5.77299895,6.6224997 5.5080016,6.5925 5.188,6.5925 L3.418,6.5925 Z M3.418,4.8975 L4.738,4.8975 C5.0180014,4.8975 5.27049888,4.8775002 5.4955,4.8375 C5.72050113,4.7974998 5.91174921,4.7275005 6.06925,4.6275 C6.22675079,4.5274995 6.34674959,4.39000087 6.42925,4.215 C6.51175041,4.03999912 6.553,3.82000132 6.553,3.555 C6.553,3.2949987 6.52050033,3.07875086 6.4555,2.90625 C6.39049967,2.73374914 6.29050068,2.59500052 6.1555,2.49 C6.02049933,2.38499947 5.84925104,2.31000023 5.64175,2.265 C5.43424896,2.21999978 5.18800143,2.1975 4.903,2.1975 L3.418,2.1975 L3.418,4.8975 Z M14.053,3.33 C14.5680026,3.33 15.0392479,3.4099992 15.46675,3.57 C15.8942521,3.7300008 16.2617485,3.96249847 16.56925,4.2675 C16.8767515,4.57250153 17.1167491,4.94624779 17.28925,5.38875 C17.4617509,5.83125221 17.548,6.3324972 17.548,6.8925 C17.548,7.06750088 17.5405001,7.20999945 17.5255,7.32 C17.5104999,7.43000055 17.4830002,7.51749968 17.443,7.5825 C17.4029998,7.64750032 17.3492503,7.69249988 17.28175,7.7175 C17.2142497,7.74250013 17.1280005,7.755 17.023,7.755 L12.538,7.755 C12.6130004,8.40500325 12.8104984,8.87624854 13.1305,9.16875 C13.4505016,9.46125146 13.8629975,9.6075 14.368,9.6075 C14.6380013,9.6075 14.870499,9.57500032 15.0655,9.51 C15.260501,9.44499967 15.4342492,9.3725004 15.58675,9.2925 C15.7392508,9.2124996 15.8792494,9.14000033 16.00675,9.075 C16.1342506,9.00999967 16.2679993,8.9775 16.408,8.9775 C16.5930009,8.9775 16.7329995,9.04499933 16.828,9.18 L17.503,10.0125 C17.2629988,10.2875014 17.0042514,10.5112491 16.72675,10.68375 C16.4492486,10.8562509 16.1642515,10.9912495 15.87175,11.08875 C15.5792485,11.1862505 15.2867515,11.2537498 14.99425,11.29125 C14.7017485,11.3287502 14.4230013,11.3475 14.158,11.3475 C13.6129973,11.3475 13.1017524,11.2587509 12.62425,11.08125 C12.1467476,10.9037491 11.7292518,10.6400018 11.37175,10.29 C11.0142482,9.93999825 10.731751,9.5050026 10.52425,8.985 C10.316749,8.4649974 10.213,7.86000345 10.213,7.17 C10.213,6.6499974 10.3017491,6.15750232 10.47925,5.6925 C10.6567509,5.22749767 10.9117483,4.82000175 11.24425,4.47 C11.5767517,4.11999825 11.9792476,3.84250103 12.45175,3.6375 C12.9242524,3.43249898 13.457997,3.33 14.053,3.33 Z M14.098,4.935 C13.6529978,4.935 13.3055013,5.06124874 13.0555,5.31375 C12.8054987,5.56625126 12.6405004,5.92999763 12.5605,6.405 L15.463,6.405 C15.463,6.21999907 15.4392502,6.04000088 15.39175,5.865 C15.3442498,5.68999913 15.2667505,5.53375069 15.15925,5.39625 C15.0517495,5.25874931 14.9105009,5.14750042 14.7355,5.0625 C14.5604991,4.97749958 14.3480013,4.935 14.098,4.935 Z M23.638,5.1525 C23.5779997,5.24750048 23.5142503,5.3149998 23.44675,5.355 C23.3792497,5.3950002 23.2930005,5.415 23.188,5.415 C23.0779995,5.415 22.9680006,5.39125024 22.858,5.34375 C22.7479994,5.29624976 22.6292506,5.24500028 22.50175,5.19 C22.3742494,5.13499972 22.2305008,5.08375024 22.0705,5.03625 C21.9104992,4.98874976 21.728001,4.965 21.523,4.965 C21.2279985,4.965 21.0017508,5.02124944 20.84425,5.13375 C20.6867492,5.24625056 20.608,5.402499 20.608,5.6025 C20.608,5.74750072 20.6592495,5.86749953 20.76175,5.9625 C20.8642505,6.05750047 21.0004991,6.14124964 21.1705,6.21375 C21.3405009,6.28625036 21.5329989,6.35499967 21.748,6.42 C21.9630011,6.48500033 22.1829989,6.5574996 22.408,6.6375 C22.6330011,6.7175004 22.8529989,6.81124946 23.068,6.91875 C23.2830011,7.02625054 23.4754992,7.15874921 23.6455,7.31625 C23.8155008,7.47375079 23.9517495,7.66499887 24.05425,7.89 C24.1567505,8.11500113 24.208,8.38499843 24.208,8.7 C24.208,9.08500193 24.1380007,9.43999837 23.998,9.765 C23.8579993,10.0900016 23.6492514,10.3699988 23.37175,10.605 C23.0942486,10.8400012 22.751752,11.0224993 22.34425,11.1525 C21.936748,11.2825006 21.4680026,11.3475 20.938,11.3475 C20.6729987,11.3475 20.4080013,11.3225003 20.143,11.2725 C19.8779987,11.2224997 19.6217512,11.1550004 19.37425,11.07 C19.1267488,10.9849996 18.8980011,10.8837506 18.688,10.76625 C18.4779989,10.6487494 18.2980008,10.5225007 18.148,10.3875 L18.688,9.5325 C18.7530003,9.4324995 18.8304996,9.35375029 18.9205,9.29625 C19.0105005,9.23874971 19.1279993,9.21 19.273,9.21 C19.4080007,9.21 19.5292495,9.2399997 19.63675,9.3 C19.7442505,9.3600003 19.8604994,9.42499965 19.9855,9.495 C20.1105006,9.56500035 20.2567492,9.6299997 20.42425,9.69 C20.5917508,9.7500003 20.8029987,9.78 21.058,9.78 C21.2380009,9.78 21.3904994,9.76125019 21.5155,9.72375 C21.6405006,9.68624981 21.7404996,9.63500032 21.8155,9.57 C21.8905004,9.50499968 21.9454998,9.4325004 21.9805,9.3525 C22.0155002,9.2724996 22.033,9.19000043 22.033,9.105 C22.033,8.94999923 21.9805005,8.8225005 21.8755,8.7225 C21.7704995,8.6224995 21.6330009,8.53625036 21.463,8.46375 C21.2929991,8.39124964 21.0992511,8.32375031 20.88175,8.26125 C20.6642489,8.19874969 20.4430011,8.1275004 20.218,8.0475 C19.9929989,7.9674996 19.7717511,7.87125056 19.55425,7.75875 C19.3367489,7.64624944 19.1430008,7.50375086 18.973,7.33125 C18.8029992,7.15874914 18.6655005,6.94750125 18.5605,6.6975 C18.4554995,6.44749875 18.403,6.14500178 18.403,5.79 C18.403,5.45999835 18.4667494,5.14625149 18.59425,4.84875 C18.7217506,4.55124851 18.9129987,4.29000113 19.168,4.065 C19.4230013,3.83999887 19.7429981,3.66125066 20.128,3.52875 C20.5130019,3.39624934 20.9629974,3.33 21.478,3.33 C21.7580014,3.33 22.0292487,3.35499975 22.29175,3.405 C22.5542513,3.45500025 22.8004988,3.52499955 23.0305,3.615 C23.2605012,3.70500045 23.470499,3.81124939 23.6605,3.93375 C23.850501,4.05625061 24.0179993,4.18999927 24.163,4.335 L23.638,5.1525 Z M28.213,11.3475 C27.8429982,11.3475 27.5167514,11.2937505 27.23425,11.18625 C26.9517486,11.0787495 26.714251,10.926251 26.52175,10.72875 C26.329249,10.531249 26.1830005,10.2925014 26.083,10.0125 C25.9829995,9.7324986 25.933,9.42000172 25.933,9.075 L25.933,5.055 L25.273,5.055 C25.1529994,5.055 25.0505004,5.01625039 24.9655,4.93875 C24.8804996,4.86124961 24.838,4.74750075 24.838,4.5975 L24.838,3.69 L26.0755,3.45 L26.533,1.5525 C26.5930003,1.3124988 26.7629986,1.1925 27.043,1.1925 L28.258,1.1925 L28.258,3.465 L30.148,3.465 L30.148,5.055 L28.258,5.055 L28.258,8.9175 C28.258,9.0975009 28.3017496,9.24624941 28.38925,9.36375 C28.4767504,9.48125059 28.6029992,9.54 28.768,9.54 C28.8530004,9.54 28.9242497,9.53125009 28.98175,9.51375 C29.0392503,9.49624991 29.0892498,9.47625011 29.13175,9.45375 C29.1742502,9.43124989 29.2142498,9.41125009 29.25175,9.39375 C29.2892502,9.37624991 29.3329998,9.3675 29.383,9.3675 C29.4530004,9.3675 29.5092498,9.38374984 29.55175,9.41625 C29.5942502,9.44875016 29.6379998,9.49999965 29.683,9.57 L30.388,10.6725 C30.0879985,10.8975011 29.7505019,11.0662494 29.3755,11.17875 C29.0004981,11.2912506 28.613002,11.3475 28.213,11.3475 Z M34.813,3.33 C35.3280026,3.33 35.7992479,3.4099992 36.22675,3.57 C36.6542521,3.7300008 37.0217485,3.96249847 37.32925,4.2675 C37.6367515,4.57250153 37.8767491,4.94624779 38.04925,5.38875 C38.2217509,5.83125221 38.308,6.3324972 38.308,6.8925 C38.308,7.06750088 38.3005001,7.20999945 38.2855,7.32 C38.2704999,7.43000055 38.2430002,7.51749968 38.203,7.5825 C38.1629998,7.64750032 38.1092503,7.69249988 38.04175,7.7175 C37.9742497,7.74250013 37.8880005,7.755 37.783,7.755 L33.298,7.755 C33.3730004,8.40500325 33.5704984,8.87624854 33.8905,9.16875 C34.2105016,9.46125146 34.6229975,9.6075 35.128,9.6075 C35.3980014,9.6075 35.630499,9.57500032 35.8255,9.51 C36.020501,9.44499967 36.1942492,9.3725004 36.34675,9.2925 C36.4992508,9.2124996 36.6392494,9.14000033 36.76675,9.075 C36.8942506,9.00999967 37.0279993,8.9775 37.168,8.9775 C37.3530009,8.9775 37.4929995,9.04499933 37.588,9.18 L38.263,10.0125 C38.0229988,10.2875014 37.7642514,10.5112491 37.48675,10.68375 C37.2092486,10.8562509 36.9242515,10.9912495 36.63175,11.08875 C36.3392485,11.1862505 36.0467515,11.2537498 35.75425,11.29125 C35.4617485,11.3287502 35.1830013,11.3475 34.918,11.3475 C34.3729973,11.3475 33.8617524,11.2587509 33.38425,11.08125 C32.9067476,10.9037491 32.4892518,10.6400018 32.13175,10.29 C31.7742482,9.93999825 31.491751,9.5050026 31.28425,8.985 C31.076749,8.4649974 30.973,7.86000345 30.973,7.17 C30.973,6.6499974 31.0617491,6.15750232 31.23925,5.6925 C31.4167509,5.22749767 31.6717483,4.82000175 32.00425,4.47 C32.3367517,4.11999825 32.7392476,3.84250103 33.21175,3.6375 C33.6842524,3.43249898 34.217997,3.33 34.813,3.33 Z M34.858,4.935 C34.4129978,4.935 34.0655012,5.06124874 33.8155,5.31375 C33.5654987,5.56625126 33.4005004,5.92999763 33.3205,6.405 L36.223,6.405 C36.223,6.21999907 36.1992502,6.04000088 36.15175,5.865 C36.1042498,5.68999913 36.0267505,5.53375069 35.91925,5.39625 C35.8117495,5.25874931 35.6705009,5.14750042 35.4955,5.0625 C35.3204991,4.97749958 35.1080012,4.935 34.858,4.935 Z M43.528,9.5475 L45.628,9.5475 L45.628,4.035 C45.628,3.76499865 45.6354999,3.48250148 45.6505,3.1875 L44.413,4.215 C44.3329996,4.28000033 44.2530004,4.32624986 44.173,4.35375 C44.0929996,4.38125014 44.0155004,4.395 43.9405,4.395 C43.8104994,4.395 43.6942505,4.36625029 43.59175,4.30875 C43.4892495,4.25124971 43.4130002,4.19000033 43.363,4.125 L42.628,3.15 L46.033,0.2925 L47.953,0.2925 L47.953,9.5475 L49.753,9.5475 L49.753,11.2275 L43.528,11.2275 L43.528,9.5475 Z M58.738,5.76 C58.738,6.71500478 58.635501,7.5424965 58.4305,8.2425 C58.225499,8.9425035 57.9417518,9.5224977 57.57925,9.9825 C57.2167482,10.4425023 56.7867525,10.7849989 56.28925,11.01 C55.7917475,11.2350011 55.2530029,11.3475 54.673,11.3475 C54.0929971,11.3475 53.5567525,11.2350011 53.06425,11.01 C52.5717475,10.7849989 52.1455018,10.4425023 51.7855,9.9825 C51.4254982,9.5224977 51.144251,8.9425035 50.94175,8.2425 C50.739249,7.5424965 50.638,6.71500478 50.638,5.76 C50.638,4.80499523 50.739249,3.9775035 50.94175,3.2775 C51.144251,2.5774965 51.4254982,1.9975023 51.7855,1.5375 C52.1455018,1.0774977 52.5717475,0.736251113 53.06425,0.51375 C53.5567525,0.291248887 54.0929971,0.18 54.673,0.18 C55.2530029,0.18 55.7917475,0.291248887 56.28925,0.51375 C56.7867525,0.736251113 57.2167482,1.0774977 57.57925,1.5375 C57.9417518,1.9975023 58.225499,2.5774965 58.4305,3.2775 C58.635501,3.9775035 58.738,4.80499523 58.738,5.76 Z M56.338,5.76 C56.338,5.00499622 56.2905005,4.38625241 56.1955,3.90375 C56.1004995,3.42124759 55.9742508,3.04250138 55.81675,2.7675 C55.6592492,2.49249862 55.480501,2.30375051 55.2805,2.20125 C55.080499,2.09874949 54.878001,2.0475 54.673,2.0475 C54.467999,2.0475 54.266751,2.09874949 54.06925,2.20125 C53.871749,2.30375051 53.6967508,2.49249862 53.54425,2.7675 C53.3917492,3.04250138 53.2692505,3.42124759 53.17675,3.90375 C53.0842495,4.38625241 53.038,5.00499622 53.038,5.76 C53.038,6.5200038 53.0842495,7.1399976 53.17675,7.62 C53.2692505,8.1000024 53.3917492,8.47874861 53.54425,8.75625 C53.6967508,9.03375139 53.871749,9.22374949 54.06925,9.32625 C54.266751,9.42875051 54.467999,9.48 54.673,9.48 C54.878001,9.48 55.080499,9.42875051 55.2805,9.32625 C55.480501,9.22374949 55.6592492,9.03375139 55.81675,8.75625 C55.9742508,8.47874861 56.1004995,8.1000024 56.1955,7.62 C56.2905005,7.1399976 56.338,6.5200038 56.338,5.76 Z M64.168,0.3 C64.2780005,0.3 64.3704996,0.30499995 64.4455,0.315 C64.5205004,0.32500005 64.5879997,0.343749862 64.648,0.37125 C64.7080003,0.398750137 64.7654997,0.43749975 64.8205,0.4875 C64.8755003,0.53750025 64.9379996,0.604999575 65.008,0.69 L70.198,7.2525 C70.1779999,7.04249895 70.1630001,6.83875099 70.153,6.64125 C70.1429999,6.44374901 70.138,6.25750088 70.138,6.0825 L70.138,0.3 L72.373,0.3 L72.373,11.2275 L71.053,11.2275 C70.857999,11.2275 70.6930007,11.1975003 70.558,11.1375 C70.4229993,11.0774997 70.2930006,10.9675008 70.168,10.8075 L65.0155,4.2975 C65.0305001,4.48750095 65.043,4.67374909 65.053,4.85625 C65.063,5.03875091 65.068,5.2099992 65.068,5.37 L65.068,11.2275 L62.833,11.2275 L62.833,0.3 L64.168,0.3 Z M77.638,3.33 C78.2280029,3.33 78.7654976,3.42249907 79.2505,3.6075 C79.7355024,3.79250093 80.1517483,4.05749828 80.49925,4.4025 C80.8467517,4.74750172 81.116749,5.16624754 81.30925,5.65875 C81.501751,6.15125246 81.598,6.70499693 81.598,7.32 C81.598,7.9400031 81.501751,8.49874751 81.30925,8.99625 C81.116749,9.49375249 80.8467517,9.91624826 80.49925,10.26375 C80.1517483,10.6112517 79.7355024,10.8787491 79.2505,11.06625 C78.7654976,11.2537509 78.2280029,11.3475 77.638,11.3475 C77.042997,11.3475 76.5017524,11.2537509 76.01425,11.06625 C75.5267476,10.8787491 75.1067518,10.6112517 74.75425,10.26375 C74.4017482,9.91624826 74.129251,9.49375249 73.93675,8.99625 C73.744249,8.49874751 73.648,7.9400031 73.648,7.32 C73.648,6.70499693 73.744249,6.15125246 73.93675,5.65875 C74.129251,5.16624754 74.4017482,4.74750172 74.75425,4.4025 C75.1067518,4.05749828 75.5267476,3.79250093 76.01425,3.6075 C76.5017524,3.42249907 77.042997,3.33 77.638,3.33 Z M77.638,9.6225 C78.1730027,9.6225 78.5667487,9.43375189 78.81925,9.05625 C79.0717513,8.67874811 79.198,8.10500385 79.198,7.335 C79.198,6.56499615 79.0717513,5.99250188 78.81925,5.6175 C78.5667487,5.24249812 78.1730027,5.055 77.638,5.055 C77.0879973,5.055 76.6855013,5.24249812 76.4305,5.6175 C76.1754987,5.99250188 76.048,6.56499615 76.048,7.335 C76.048,8.10500385 76.1754987,8.67874811 76.4305,9.05625 C76.6855013,9.43375189 77.0879973,9.6225 77.638,9.6225 Z M82.873,11.2275 L82.873,3.45 L84.253,3.45 C84.3680006,3.45 84.4642496,3.4599999 84.54175,3.48 C84.6192504,3.5000001 84.6842497,3.53124979 84.73675,3.57375 C84.7892503,3.61625021 84.8292499,3.67249965 84.85675,3.7425 C84.8842501,3.81250035 84.9079999,3.8974995 84.928,3.9975 L85.0555,4.725 C85.3405014,4.2849978 85.6604982,3.93750127 86.0155,3.6825 C86.3705018,3.42749873 86.7579979,3.3 87.178,3.3 C87.5330018,3.3 87.8179989,3.38499915 88.033,3.555 L87.733,5.265 C87.7129999,5.37000053 87.6730003,5.44374979 87.613,5.48625 C87.5529997,5.52875021 87.4730005,5.55 87.373,5.55 C87.2879996,5.55 87.1880006,5.53875011 87.073,5.51625 C86.9579994,5.49374989 86.8130009,5.4825 86.638,5.4825 C86.027997,5.4825 85.5480018,5.80749675 85.198,6.4575 L85.198,11.2275 L82.873,11.2275 Z M93.823,5.1525 C93.7629997,5.24750048 93.6992503,5.3149998 93.63175,5.355 C93.5642497,5.3950002 93.4780005,5.415 93.373,5.415 C93.2629994,5.415 93.1530005,5.39125024 93.043,5.34375 C92.9329995,5.29624976 92.8142506,5.24500028 92.68675,5.19 C92.5592494,5.13499972 92.4155008,5.08375024 92.2555,5.03625 C92.0954992,4.98874976 91.913001,4.965 91.708,4.965 C91.4129985,4.965 91.1867508,5.02124944 91.02925,5.13375 C90.8717492,5.24625056 90.793,5.402499 90.793,5.6025 C90.793,5.74750072 90.8442495,5.86749953 90.94675,5.9625 C91.0492505,6.05750047 91.1854992,6.14124964 91.3555,6.21375 C91.5255008,6.28625036 91.7179989,6.35499967 91.933,6.42 C92.1480011,6.48500033 92.3679989,6.5574996 92.593,6.6375 C92.8180011,6.7175004 93.0379989,6.81124946 93.253,6.91875 C93.4680011,7.02625054 93.6604991,7.15874921 93.8305,7.31625 C94.0005009,7.47375079 94.1367495,7.66499887 94.23925,7.89 C94.3417505,8.11500113 94.393,8.38499843 94.393,8.7 C94.393,9.08500193 94.3230007,9.43999837 94.183,9.765 C94.0429993,10.0900016 93.8342514,10.3699988 93.55675,10.605 C93.2792486,10.8400012 92.936752,11.0224993 92.52925,11.1525 C92.121748,11.2825006 91.6530027,11.3475 91.123,11.3475 C90.8579987,11.3475 90.5930013,11.3225003 90.328,11.2725 C90.0629987,11.2224997 89.8067512,11.1550004 89.55925,11.07 C89.3117488,10.9849996 89.083001,10.8837506 88.873,10.76625 C88.6629989,10.6487494 88.4830007,10.5225007 88.333,10.3875 L88.873,9.5325 C88.9380003,9.4324995 89.0154996,9.35375029 89.1055,9.29625 C89.1955005,9.23874971 89.3129993,9.21 89.458,9.21 C89.5930007,9.21 89.7142495,9.2399997 89.82175,9.3 C89.9292505,9.3600003 90.0454994,9.42499965 90.1705,9.495 C90.2955006,9.56500035 90.4417492,9.6299997 90.60925,9.69 C90.7767508,9.7500003 90.9879987,9.78 91.243,9.78 C91.4230009,9.78 91.5754994,9.76125019 91.7005,9.72375 C91.8255006,9.68624981 91.9254996,9.63500032 92.0005,9.57 C92.0755004,9.50499968 92.1304998,9.4325004 92.1655,9.3525 C92.2005002,9.2724996 92.218,9.19000043 92.218,9.105 C92.218,8.94999923 92.1655005,8.8225005 92.0605,8.7225 C91.9554995,8.6224995 91.8180008,8.53625036 91.648,8.46375 C91.4779991,8.39124964 91.2842511,8.32375031 91.06675,8.26125 C90.8492489,8.19874969 90.6280011,8.1275004 90.403,8.0475 C90.1779989,7.9674996 89.9567511,7.87125056 89.73925,7.75875 C89.5217489,7.64624944 89.3280009,7.50375086 89.158,7.33125 C88.9879991,7.15874914 88.8505005,6.94750125 88.7455,6.6975 C88.6404995,6.44749875 88.588,6.14500178 88.588,5.79 C88.588,5.45999835 88.6517494,5.14625149 88.77925,4.84875 C88.9067506,4.55124851 89.0979987,4.29000113 89.353,4.065 C89.6080013,3.83999887 89.9279981,3.66125066 90.313,3.52875 C90.6980019,3.39624934 91.1479974,3.33 91.663,3.33 C91.9430014,3.33 92.2142487,3.35499975 92.47675,3.405 C92.7392513,3.45500025 92.9854989,3.52499955 93.2155,3.615 C93.4455011,3.70500045 93.6554991,3.81124939 93.8455,3.93375 C94.035501,4.05625061 94.2029993,4.18999927 94.348,4.335 L93.823,5.1525 Z M97.993,0 L97.993,6.2925 L98.338,6.2925 C98.4830007,6.2925 98.5942496,6.2725002 98.67175,6.2325 C98.7492504,6.1924998 98.8229997,6.12000053 98.893,6.015 L100.363,3.825 C100.448,3.69499935 100.549249,3.6000003 100.66675,3.54 C100.784251,3.4799997 100.932999,3.45 101.113,3.45 L103.243,3.45 L101.233,6.2175 C101.138,6.34750065 101.034251,6.4624995 100.92175,6.5625 C100.809249,6.6625005 100.688001,6.7524996 100.558,6.8325 C100.783001,7.00250085 100.977999,7.2274986 101.143,7.5075 L103.333,11.2275 L101.233,11.2275 C101.057999,11.2275 100.906751,11.1987503 100.77925,11.14125 C100.651749,11.0837497 100.548,10.9825007 100.468,10.8375 L98.998,8.085 C98.9279997,7.95999937 98.8555004,7.87875019 98.7805,7.84125 C98.7054996,7.80374981 98.5930007,7.785 98.443,7.785 L97.993,7.785 L97.993,11.2275 L95.668,11.2275 L95.668,0 L97.993,0 Z M12.529,28.2275 L10.302,28.2275 C10.0526654,28.2275 9.84725081,28.1694172 9.68575,28.05325 C9.52424919,27.9370828 9.41233364,27.7883342 9.35,27.607 L8.619,25.448 L3.91,25.448 L3.179,27.607 C3.12233305,27.7656675 3.01183416,27.9087494 2.8475,28.03625 C2.68316584,28.1637506 2.48200119,28.2275 2.244,28.2275 L0,28.2275 L4.794,15.843 L7.735,15.843 L12.529,28.2275 Z M4.573,23.493 L7.956,23.493 L6.817,20.1015 C6.74333297,19.8861656 6.65691716,19.6325848 6.55775,19.34075 C6.45858284,19.0489152 6.36083382,18.7330017 6.2645,18.393 C6.17383288,18.7386684 6.08033381,19.0588319 5.984,19.3535 C5.88766619,19.6481681 5.79700043,19.9031656 5.712,20.1185 L4.573,23.493 Z M13.932,28.2275 L13.932,19.413 L15.564,19.413 C15.7283342,19.413 15.8657494,19.449833 15.97625,19.5235 C16.0867506,19.597167 16.1646664,19.7076659 16.21,19.855 L16.363,20.365 C16.5330008,20.2063325 16.7086658,20.0590007 16.89,19.923 C17.0713342,19.7869993 17.2654156,19.6722505 17.47225,19.57875 C17.6790844,19.4852495 17.9029155,19.4115836 18.14375,19.35775 C18.3845845,19.3039164 18.6466652,19.277 18.93,19.277 C19.4116691,19.277 19.8380815,19.3605825 20.20925,19.52775 C20.5804185,19.6949175 20.8934987,19.9272485 21.1485,20.22475 C21.4035013,20.5222515 21.596166,20.8764146 21.7265,21.28725 C21.856834,21.6980854 21.922,22.1443309 21.922,22.626 L21.922,28.2275 L19.287,28.2275 L19.287,22.626 C19.287,22.1953312 19.1878343,21.8595845 18.9895,21.61875 C18.7911657,21.3779155 18.4993353,21.2575 18.114,21.2575 C17.8249986,21.2575 17.5530013,21.3198327 17.298,21.4445 C17.0429987,21.5691673 16.7993345,21.7363323 16.567,21.946 L16.567,28.2275 L13.932,28.2275 Z M24.192,28.2275 L24.192,19.413 L25.824,19.413 C25.9883342,19.413 26.1257494,19.449833 26.23625,19.5235 C26.3467506,19.597167 26.4246664,19.7076659 26.47,19.855 L26.6145,20.331 C26.7618341,20.1779992 26.9148325,20.0377506 27.0735,19.91025 C27.2321675,19.7827494 27.4035824,19.6722505 27.58775,19.57875 C27.7719176,19.4852495 27.9702489,19.4115836 28.18275,19.35775 C28.3952511,19.3039164 28.6289987,19.277 28.884,19.277 C29.4166693,19.277 29.8572483,19.4144153 30.20575,19.68925 C30.5542517,19.9640847 30.8191658,20.3309977 31.0005,20.79 C31.1478341,20.5179986 31.3277489,20.2856676 31.54025,20.093 C31.7527511,19.9003324 31.9822488,19.7445006 32.22875,19.6255 C32.4752512,19.5064994 32.7359153,19.4186669 33.01075,19.362 C33.2855847,19.305333 33.5589986,19.277 33.831,19.277 C34.3353359,19.277 34.782998,19.3520826 35.174,19.50225 C35.565002,19.6524174 35.8922487,19.8705819 36.15575,20.15675 C36.4192513,20.4429181 36.6189993,20.7942479 36.755,21.21075 C36.8910007,21.6272521 36.959,22.0989974 36.959,22.626 L36.959,28.2275 L34.324,28.2275 L34.324,22.626 C34.324,21.7136621 33.9330039,21.2575 33.151,21.2575 C32.7939982,21.2575 32.4979178,21.3750822 32.26275,21.61025 C32.0275822,21.8454178 31.91,22.1839978 31.91,22.626 L31.91,28.2275 L29.275,28.2275 L29.275,22.626 C29.275,22.1216641 29.1758343,21.767501 28.9775,21.5635 C28.7791657,21.359499 28.4873353,21.2575 28.102,21.2575 C27.8639988,21.2575 27.6387511,21.3113328 27.42625,21.419 C27.2137489,21.5266672 27.0140009,21.6711658 26.827,21.8525 L26.827,28.2275 L24.192,28.2275 Z M43.003,19.277 C43.5866696,19.277 44.1207476,19.3676658 44.60525,19.549 C45.0897524,19.7303342 45.5062483,19.9938316 45.85475,20.3395 C46.2032517,20.6851684 46.475249,21.1087475 46.67075,21.61025 C46.866251,22.1117525 46.964,22.6798302 46.964,23.3145 C46.964,23.5128343 46.9555001,23.6743327 46.9385,23.799 C46.9214999,23.9236673 46.8903336,24.022833 46.845,24.0965 C46.7996664,24.170167 46.7387504,24.2211665 46.66225,24.2495 C46.5857496,24.2778335 46.4880006,24.292 46.369,24.292 L41.286,24.292 C41.3710004,25.0286703 41.5948315,25.5627483 41.9575,25.89425 C42.3201685,26.2257517 42.7876638,26.3915 43.36,26.3915 C43.6660015,26.3915 43.9294989,26.354667 44.1505,26.281 C44.3715011,26.207333 44.5684158,26.1251671 44.74125,26.0345 C44.9140842,25.9438329 45.0727493,25.861667 45.21725,25.788 C45.3617507,25.714333 45.5133325,25.6775 45.672,25.6775 C45.8816677,25.6775 46.0403328,25.7539992 46.148,25.907 L46.913,26.8505 C46.6409986,27.1621682 46.3477516,27.415749 46.03325,27.61125 C45.7187484,27.806751 45.3957517,27.9597494 45.06425,28.07025 C44.7327483,28.1807506 44.4012517,28.2572498 44.06975,28.29975 C43.7382483,28.3422502 43.4223348,28.3635 43.122,28.3635 C42.5043302,28.3635 41.9249194,28.2629177 41.38375,28.06175 C40.8425806,27.8605823 40.3694187,27.5616686 39.96425,27.165 C39.5590813,26.7683314 39.2389178,26.2753363 39.00375,25.686 C38.7685822,25.0966637 38.651,24.4110039 38.651,23.629 C38.651,23.0396637 38.7515823,22.4815026 38.95275,21.9545 C39.1539177,21.4274974 39.4429148,20.9656687 39.81975,20.569 C40.1965852,20.1723313 40.6527473,19.8578345 41.18825,19.6255 C41.7237527,19.3931655 42.3286633,19.277 43.003,19.277 Z M43.054,21.096 C42.5496641,21.096 42.1558347,21.2390819 41.8725,21.52525 C41.5891652,21.8114181 41.4021671,22.223664 41.3115,22.762 L44.601,22.762 C44.601,22.5523323 44.5740836,22.3483343 44.52025,22.15 C44.4664164,21.9516657 44.3785839,21.7745841 44.25675,21.61875 C44.1349161,21.4629159 43.9748343,21.3368338 43.7765,21.2405 C43.5781657,21.1441662 43.3373348,21.096 43.054,21.096 Z M51.597,15.503 L51.597,28.2275 L48.962,28.2275 L48.962,15.503 L51.597,15.503 Z M60.31,28.2275 C60.1456658,28.2275 60.0082506,28.190667 59.89775,28.117 C59.7872494,28.043333 59.7093336,27.9328341 59.664,27.7855 L59.46,27.114 C59.2843325,27.3010009 59.1001676,27.4709992 58.9075,27.624 C58.7148324,27.7770008 58.5065845,27.9087494 58.28275,28.01925 C58.0589155,28.1297506 57.8180846,28.2147497 57.56025,28.27425 C57.3024154,28.3337503 57.0233348,28.3635 56.723,28.3635 C56.2639977,28.3635 55.839002,28.261501 55.448,28.0575 C55.056998,27.853499 54.7198348,27.5588353 54.4365,27.1735 C54.1531653,26.7881647 53.9307508,26.3164195 53.76925,25.75825 C53.6077492,25.2000805 53.527,24.5640036 53.527,23.85 C53.527,23.1926634 53.6176658,22.5820862 53.799,22.01825 C53.9803342,21.4544138 54.2367483,20.9670854 54.56825,20.55625 C54.8997517,20.1454146 55.297831,19.8238345 55.7625,19.5915 C56.227169,19.3591655 56.7399972,19.243 57.301,19.243 C57.7543356,19.243 58.1382484,19.3095827 58.45275,19.44275 C58.7672516,19.5759173 59.0519987,19.7501656 59.307,19.9655 L59.307,15.503 L61.942,15.503 L61.942,28.2275 L60.31,28.2275 Z M57.641,26.3405 C57.8336676,26.3405 58.0079159,26.3220835 58.16375,26.28525 C58.3195841,26.2484165 58.462666,26.1960003 58.593,26.128 C58.723334,26.0599997 58.8465828,25.9750005 58.96275,25.873 C59.0789172,25.7709995 59.1936661,25.6520007 59.307,25.516 L59.307,21.776 C59.102999,21.5549989 58.8862511,21.4005838 58.65675,21.31275 C58.4272489,21.2249162 58.1850013,21.181 57.93,21.181 C57.6863321,21.181 57.462501,21.2291662 57.2585,21.3255 C57.054499,21.4218338 56.8774174,21.5762489 56.72725,21.78875 C56.5770826,22.0012511 56.4595004,22.2774983 56.3745,22.6175 C56.2894996,22.9575017 56.247,23.3683309 56.247,23.85 C56.247,24.314669 56.2809997,24.7056651 56.349,25.023 C56.4170003,25.3403349 56.5119161,25.596749 56.63375,25.79225 C56.7555839,25.987751 56.9014992,26.1279996 57.0715,26.213 C57.2415008,26.2980004 57.4313323,26.3405 57.641,26.3405 Z M68.156,19.277 C68.7396696,19.277 69.2737476,19.3676658 69.75825,19.549 C70.2427524,19.7303342 70.6592483,19.9938316 71.00775,20.3395 C71.3562517,20.6851684 71.628249,21.1087475 71.82375,21.61025 C72.019251,22.1117525 72.117,22.6798302 72.117,23.3145 C72.117,23.5128343 72.1085001,23.6743327 72.0915,23.799 C72.0744999,23.9236673 72.0433336,24.022833 71.998,24.0965 C71.9526664,24.170167 71.8917504,24.2211665 71.81525,24.2495 C71.7387496,24.2778335 71.6410006,24.292 71.522,24.292 L66.439,24.292 C66.5240004,25.0286703 66.7478315,25.5627483 67.1105,25.89425 C67.4731685,26.2257517 67.9406638,26.3915 68.513,26.3915 C68.8190015,26.3915 69.0824989,26.354667 69.3035,26.281 C69.5245011,26.207333 69.7214158,26.1251671 69.89425,26.0345 C70.0670842,25.9438329 70.2257493,25.861667 70.37025,25.788 C70.5147507,25.714333 70.6663325,25.6775 70.825,25.6775 C71.0346677,25.6775 71.1933328,25.7539992 71.301,25.907 L72.066,26.8505 C71.7939986,27.1621682 71.5007516,27.415749 71.18625,27.61125 C70.8717484,27.806751 70.5487517,27.9597494 70.21725,28.07025 C69.8857483,28.1807506 69.5542517,28.2572498 69.22275,28.29975 C68.8912483,28.3422502 68.5753348,28.3635 68.275,28.3635 C67.6573302,28.3635 67.0779194,28.2629177 66.53675,28.06175 C65.9955806,27.8605823 65.5224187,27.5616686 65.11725,27.165 C64.7120813,26.7683314 64.3919178,26.2753363 64.15675,25.686 C63.9215822,25.0966637 63.804,24.4110039 63.804,23.629 C63.804,23.0396637 63.9045823,22.4815026 64.10575,21.9545 C64.3069177,21.4274974 64.5959148,20.9656687 64.97275,20.569 C65.3495852,20.1723313 65.8057473,19.8578345 66.34125,19.6255 C66.8767527,19.3931655 67.4816633,19.277 68.156,19.277 Z M68.207,21.096 C67.7026641,21.096 67.3088348,21.2390819 67.0255,21.52525 C66.7421653,21.8114181 66.5551671,22.223664 66.4645,22.762 L69.754,22.762 C69.754,22.5523323 69.7270836,22.3483343 69.67325,22.15 C69.6194164,21.9516657 69.5315839,21.7745841 69.40975,21.61875 C69.2879161,21.4629159 69.1278343,21.3368338 68.9295,21.2405 C68.7311657,21.1441662 68.4903348,21.096 68.207,21.096 Z M76.75,15.503 L76.75,28.2275 L74.115,28.2275 L74.115,15.503 L76.75,15.503 Z M84.664,21.3425 C84.5959997,21.4501672 84.5237504,21.5266664 84.44725,21.572 C84.3707496,21.6173336 84.2730006,21.64 84.154,21.64 C84.0293327,21.64 83.9046673,21.6130836 83.78,21.55925 C83.6553327,21.5054164 83.5207507,21.4473336 83.37625,21.385 C83.2317493,21.3226664 83.0688342,21.2645836 82.8875,21.21075 C82.7061658,21.1569164 82.4993345,21.13 82.267,21.13 C81.932665,21.13 81.6762509,21.1937494 81.49775,21.32125 C81.3192491,21.4487506 81.23,21.6258322 81.23,21.8525 C81.23,22.0168342 81.2880828,22.1528328 81.40425,22.2605 C81.5204172,22.3681672 81.6748324,22.4630829 81.8675,22.54525 C82.0601676,22.6274171 82.2783321,22.705333 82.522,22.779 C82.7656679,22.852667 83.0149987,22.9348329 83.27,23.0255 C83.5250013,23.1161671 83.7743321,23.2224161 84.018,23.34425 C84.2616679,23.4660839 84.4798324,23.6162491 84.6725,23.79475 C84.8651676,23.9732509 85.0195828,24.1899987 85.13575,24.445 C85.2519172,24.7000013 85.31,25.0059982 85.31,25.363 C85.31,25.7993355 85.2306675,26.2016648 85.072,26.57 C84.9133325,26.9383352 84.6767516,27.2556653 84.36225,27.522 C84.0477484,27.7883347 83.6595856,27.9951659 83.19775,28.1425 C82.7359144,28.2898341 82.2046697,28.3635 81.604,28.3635 C81.3036652,28.3635 81.0033348,28.3351669 80.703,28.2785 C80.4026652,28.221833 80.1122514,28.1453338 79.83175,28.049 C79.5512486,27.9526662 79.2920012,27.8379173 79.054,27.70475 C78.8159988,27.5715827 78.6120009,27.4285008 78.442,27.2755 L79.054,26.3065 C79.127667,26.1931661 79.2154995,26.103917 79.3175,26.03875 C79.4195005,25.973583 79.5526658,25.941 79.717,25.941 C79.8700008,25.941 80.0074161,25.9749997 80.12925,26.043 C80.2510839,26.1110003 80.3828326,26.1846663 80.5245,26.264 C80.6661674,26.3433337 80.8319157,26.4169997 81.02175,26.485 C81.2115843,26.5530003 81.4509986,26.587 81.74,26.587 C81.944001,26.587 82.1168326,26.5657502 82.2585,26.52325 C82.4001674,26.4807498 82.5134996,26.422667 82.5985,26.349 C82.6835004,26.275333 82.7458331,26.1931671 82.7855,26.1025 C82.8251669,26.0118329 82.845,25.9183338 82.845,25.822 C82.845,25.6463325 82.7855006,25.5018339 82.6665,25.3885 C82.5474994,25.2751661 82.3916676,25.1774171 82.199,25.09525 C82.0063324,25.0130829 81.7867512,24.9365837 81.54025,24.86575 C81.2937488,24.7949163 81.0430013,24.7141671 80.788,24.6235 C80.5329987,24.5328329 80.2822512,24.4237506 80.03575,24.29625 C79.7892488,24.1687494 79.5696676,24.007251 79.377,23.81175 C79.1843324,23.616249 79.0285006,23.3768347 78.9095,23.0935 C78.7904994,22.8101652 78.731,22.4673353 78.731,22.065 C78.731,21.6909981 78.8032493,21.3354184 78.94775,20.99825 C79.0922507,20.6610816 79.3089986,20.3650013 79.598,20.11 C79.8870014,19.8549987 80.2496645,19.6524174 80.686,19.50225 C81.1223355,19.3520826 81.6323304,19.277 82.216,19.277 C82.5333349,19.277 82.8407485,19.305333 83.13825,19.362 C83.4357515,19.4186669 83.714832,19.4979995 83.9755,19.6 C84.236168,19.7020005 84.4741656,19.822416 84.6895,19.96125 C84.9048344,20.100084 85.0946658,20.2516658 85.259,20.416 L84.664,21.3425 Z M90.929,19.277 C91.5126696,19.277 92.0467476,19.3676658 92.53125,19.549 C93.0157524,19.7303342 93.4322483,19.9938316 93.78075,20.3395 C94.1292517,20.6851684 94.401249,21.1087475 94.59675,21.61025 C94.792251,22.1117525 94.89,22.6798302 94.89,23.3145 C94.89,23.5128343 94.8815001,23.6743327 94.8645,23.799 C94.8474999,23.9236673 94.8163336,24.022833 94.771,24.0965 C94.7256664,24.170167 94.6647504,24.2211665 94.58825,24.2495 C94.5117496,24.2778335 94.4140006,24.292 94.295,24.292 L89.212,24.292 C89.2970004,25.0286703 89.5208315,25.5627483 89.8835,25.89425 C90.2461685,26.2257517 90.7136638,26.3915 91.286,26.3915 C91.5920015,26.3915 91.8554989,26.354667 92.0765,26.281 C92.2975011,26.207333 92.4944158,26.1251671 92.66725,26.0345 C92.8400842,25.9438329 92.9987493,25.861667 93.14325,25.788 C93.2877507,25.714333 93.4393325,25.6775 93.598,25.6775 C93.8076677,25.6775 93.9663328,25.7539992 94.074,25.907 L94.839,26.8505 C94.5669986,27.1621682 94.2737516,27.415749 93.95925,27.61125 C93.6447484,27.806751 93.3217517,27.9597494 92.99025,28.07025 C92.6587483,28.1807506 92.3272517,28.2572498 91.99575,28.29975 C91.6642483,28.3422502 91.3483348,28.3635 91.048,28.3635 C90.4303302,28.3635 89.8509194,28.2629177 89.30975,28.06175 C88.7685806,27.8605823 88.2954187,27.5616686 87.89025,27.165 C87.4850813,26.7683314 87.1649178,26.2753363 86.92975,25.686 C86.6945822,25.0966637 86.577,24.4110039 86.577,23.629 C86.577,23.0396637 86.6775823,22.4815026 86.87875,21.9545 C87.0799177,21.4274974 87.3689148,20.9656687 87.74575,20.569 C88.1225852,20.1723313 88.5787473,19.8578345 89.11425,19.6255 C89.6497527,19.3931655 90.2546633,19.277 90.929,19.277 Z M90.98,21.096 C90.4756641,21.096 90.0818347,21.2390819 89.7985,21.52525 C89.5151652,21.8114181 89.3281671,22.223664 89.2375,22.762 L92.527,22.762 C92.527,22.5523323 92.5000836,22.3483343 92.44625,22.15 C92.3924164,21.9516657 92.3045839,21.7745841 92.18275,21.61875 C92.0609161,21.4629159 91.9008343,21.3368338 91.7025,21.2405 C91.5041657,21.1441662 91.2633348,21.096 90.98,21.096 Z M96.803,28.2275 L96.803,19.413 L98.367,19.413 C98.497334,19.413 98.6064162,19.4243332 98.69425,19.447 C98.7820838,19.4696668 98.8557497,19.5050831 98.91525,19.55325 C98.9747503,19.6014169 99.0200832,19.6651663 99.05125,19.7445 C99.0824168,19.8238337 99.1093332,19.9201661 99.132,20.0335 L99.2765,20.858 C99.5995016,20.3593308 99.9621647,19.9655014 100.3645,19.6765 C100.766835,19.3874986 101.205998,19.243 101.682,19.243 C102.084335,19.243 102.407332,19.3393324 102.651,19.532 L102.311,21.47 C102.288333,21.5890006 102.243,21.6725831 102.175,21.72075 C102.107,21.7689169 102.016334,21.793 101.903,21.793 C101.806666,21.793 101.693334,21.7802501 101.563,21.75475 C101.432666,21.7292499 101.268334,21.7165 101.07,21.7165 C100.378663,21.7165 99.8346687,22.0848296 99.438,22.8215 L99.438,28.2275 L96.803,28.2275 Z" id="Beste-10-Norsk-Anmel"></path>
            </g>
        </g>
    </g>
</svg>